<svg width="31" height="31" viewBox="0 0 31 31" fill="none" xmlns="http://www.w3.org/2000/svg">
<path d="M26.4103 26.4172H21.8206V19.2234C21.8206 17.5081 21.7861 15.3002 19.4267 15.3002C17.0345 15.3002 16.6694 17.1671 16.6694 19.0977V26.4172H12.0779V11.625H16.4868V13.64H16.5471C17.1637 12.4792 18.662 11.2513 20.9009 11.2513C25.5509 11.2513 26.412 14.3134 26.412 18.2969V26.4172H26.4103ZM6.89405 9.60139C6.54368 9.60184 6.19666 9.53314 5.87289 9.39921C5.54912 9.26528 5.25496 9.06877 5.00729 8.82094C4.75961 8.5731 4.56329 8.27882 4.42957 7.95497C4.29586 7.63111 4.22738 7.28404 4.22806 6.93367C4.2284 6.40638 4.38509 5.89104 4.67831 5.45281C4.97154 5.01458 5.38813 4.67314 5.87541 4.47167C6.36269 4.2702 6.89877 4.21775 7.41585 4.32095C7.93294 4.42415 8.40781 4.67837 8.78042 5.05146C9.15302 5.42455 9.40663 5.89975 9.50916 6.41697C9.6117 6.93419 9.55856 7.4702 9.35646 7.95721C9.15436 8.44423 8.81238 8.86038 8.37377 9.15304C7.93516 9.4457 7.42134 9.60173 6.89405 9.60139ZM9.19494 26.4172H4.59144V11.625H9.19667V26.4172H9.19494ZM28.7094 0H2.28883C1.02128 0 0 0.998889 0 2.23372V28.7663C0 30.0011 1.023 31 2.28711 31H28.7026C29.9667 31 31 30.0011 31 28.7663V2.23372C31 0.998889 29.9667 0 28.7026 0H28.7094Z" fill="#CFCFCF"/>
</svg>
